<?xml version="1.0" encoding="UTF-8"?>
<!DOCTYPE svg PUBLIC "-//W3C//DTD SVG 1.1//EN" "http://www.w3.org/Graphics/SVG/1.1/DTD/svg11.dtd">
<svg xmlns="http://www.w3.org/2000/svg" version="1.1" width="512px" height="512px" style="shape-rendering:geometricPrecision; text-rendering:geometricPrecision; image-rendering:optimizeQuality; fill-rule:evenodd; clip-rule:evenodd" xmlns:xlink="http://www.w3.org/1999/xlink">
<g><path style="opacity:0.989" fill="#000000" d="M 0.5,-0.5 C 41.8333,-0.5 83.1667,-0.5 124.5,-0.5C 186.853,166.048 248.52,332.881 309.5,500C 308.576,504.006 307.243,507.839 305.5,511.5C 272.167,511.5 238.833,511.5 205.5,511.5C 136.773,340.986 68.44,170.319 0.5,-0.5 Z"/></g>
<g><path style="opacity:0.986" fill="#000000" d="M 388.5,-0.5 C 429.167,-0.5 469.833,-0.5 510.5,-0.5C 455.97,136.584 401.137,273.584 346,410.5C 327.293,361.743 309.126,312.743 291.5,263.5C 323.851,175.473 356.184,87.4734 388.5,-0.5 Z"/></g>
<g><path style="opacity:0.936" fill="#000000" d="M 279.5,294.5 C 281.117,296.121 282.284,298.121 283,300.5C 299.667,345.833 316.333,391.167 333,436.5C 333.667,438.5 333.667,440.5 333,442.5C 329.61,451.614 325.943,460.614 322,469.5C 303.95,422.689 286.283,375.689 269,328.5C 268.333,326.833 268.333,325.167 269,323.5C 272.514,313.812 276.014,304.146 279.5,294.5 Z"/></g>
</svg>
